HIERARCHY
ROOT Hips
{
	OFFSET 0.000000 0.000000 0.000000
	CHANNELS 6 Xposition Yposition Zposition Zrotation Yrotation Xrotation 
	JOINT LeftUpLeg_virtual
	{
		OFFSET 0.000000 0.000000 0.000000
		CHANNELS 3 Zrotation Yrotation Xrotation
		JOINT LeftUpLeg
		{
			OFFSET 10.205400 -3.823500 0.155100
			CHANNELS 3 Zrotation Yrotation Xrotation
			JOINT LeftLeg
			{
				OFFSET 0.708757 -12.982077 0.567790
				CHANNELS 3 Zrotation Yrotation Xrotation
				JOINT LeftFoot
				{
					OFFSET -0.708756 -10.717838 -2.184338
					CHANNELS 3 Zrotation Yrotation Xrotation
					JOINT LeftToeBase
					{
						OFFSET 0.108149 -7.191104 7.560241
						CHANNELS 3 Zrotation Yrotation Xrotation
						End Site
						{
							OFFSET 0.000000 0.000000 0.000000
						}
					}
				}
			}
		}
	}
	JOINT RightUpLeg_virtual
	{
		OFFSET 0.000000 0.000000 0.000000
		CHANNELS 3 Zrotation Yrotation Xrotation
		JOINT RightUpLeg
		{
			OFFSET -10.205400 -3.823500 0.005500
			CHANNELS 3 Zrotation Yrotation Xrotation
			JOINT RightLeg
			{
				OFFSET -0.708756 -12.982134 0.610632
				CHANNELS 3 Zrotation Yrotation Xrotation
				JOINT RightFoot
				{
					OFFSET 0.708754 -10.717769 -1.945823
					CHANNELS 3 Zrotation Yrotation Xrotation
					JOINT RightToeBase
					{
						OFFSET -0.108140 -7.191069 7.372968
						CHANNELS 3 Zrotation Yrotation Xrotation
						End Site
						{
							OFFSET 0.000000 0.000000 0.000000
						}
					}
				}
			}
		}
	}
	JOINT Spine_virtual
	{
		OFFSET 0.000000 0.000000 0.000000
		CHANNELS 3 Zrotation Yrotation Xrotation
		JOINT Spine
		{
			OFFSET 0.000000 6.876099 0.125700
			CHANNELS 3 Zrotation Yrotation Xrotation
			JOINT Spine1
			{
				OFFSET 0.000000 8.022060 0.146608
				CHANNELS 3 Zrotation Yrotation Xrotation
				JOINT Spine2
				{
					OFFSET 0.000000 9.168068 0.167552
					CHANNELS 3 Zrotation Yrotation Xrotation
					JOINT Neck_virtual
					{
						OFFSET 0.000000 0.000000 0.000000
						CHANNELS 3 Zrotation Yrotation Xrotation
						JOINT Neck
						{
							OFFSET 0.000000 10.314075 0.188496
							CHANNELS 3 Zrotation Yrotation Xrotation
							JOINT Head
							{
								OFFSET 0.000000 7.643700 -2.377400
								CHANNELS 3 Zrotation Yrotation Xrotation
								End Site
								{
									OFFSET 0.000000 0.000000 0.000000
								}
							}
						}
					}
					JOINT LeftShoulder_virtual
					{
						OFFSET 0.000000 0.000000 0.000000
						CHANNELS 3 Zrotation Yrotation Xrotation
						JOINT LeftShoulder
						{
							OFFSET 4.392200 8.824978 0.174984
							CHANNELS 3 Zrotation Yrotation Xrotation
							JOINT LeftArm
							{
								OFFSET 8.771219 -2.981674 -0.026999
								CHANNELS 3 Zrotation Yrotation Xrotation
								JOINT LeftForeArm
								{
									OFFSET 8.512804 0.000000 -0.000000
									CHANNELS 3 Zrotation Yrotation Xrotation
									JOINT LeftHand
									{
										OFFSET 18.484802 0.000000 -0.000000
										CHANNELS 3 Zrotation Yrotation Xrotation
										End Site
										{
											OFFSET 0.000000 0.000000 0.000000
										}
									}
								}
							}
						}
					}
					JOINT RightShoulder_virtual
					{
						OFFSET 0.000000 0.000000 0.000000
						CHANNELS 3 Zrotation Yrotation Xrotation
						JOINT RightShoulder
						{
							OFFSET -4.392200 8.824993 0.141379
							CHANNELS 3 Zrotation Yrotation Xrotation
							JOINT RightArm
							{
								OFFSET -8.771282 -2.981682 -0.094208
								CHANNELS 3 Zrotation Yrotation Xrotation
								JOINT RightForeArm
								{
									OFFSET -8.494598 0.000000 0.000000
									CHANNELS 3 Zrotation Yrotation Xrotation
									JOINT RightHand
									{
										OFFSET -18.483803 0.000000 0.000001
										CHANNELS 3 Zrotation Yrotation Xrotation
										End Site
										{
											OFFSET 0.000000 0.000000 0.000000
										}
									}
								}
							}
						}
					}
				}
			}
		}
	}
}
MOTION
Frames: 8
Frame Time: 0.033333
3.008455 34.771095 34.894989 179.903863 1.027986 179.942030 -0.968548 -3.531691 8.002258 -7.102062 -1.731884 -25.746277 11.812579 8.781227 19.823432 0.146660 4.717783 4.218520 0.000000 0.000000 0.000000 3.972499 -2.516158 5.416434 2.386272 7.954306 -22.418228 -3.436294 5.002492 18.145927 6.748682 5.222892 2.197626 0.000000 0.000000 0.000000 1.417630 -0.049484 -3.542298 -0.017452 -2.814261 -11.919497 -1.383017 -1.549625 10.043348 0.008119 -0.027291 0.004862 -1.858610 0.687588 11.645080 0.616198 -0.115994 17.734557 0.000000 0.000000 0.000000 -0.252708 1.376293 8.869949 -17.944367 -11.171637 2.593641 -50.190935 20.612447 9.659936 -2.580491 -31.497465 5.341620 0.000000 0.000000 0.000000 -4.197923 2.457667 8.332815 24.344876 5.835090 5.125826 45.393249 -18.058354 19.192596 -7.894814 32.743667 -4.536027 0.000000 0.000000 0.000000 
3.006110 34.763676 34.861664 179.866543 1.184309 179.915543 -0.883762 -3.656559 8.194328 -7.145241 -1.772938 -25.529557 12.102005 8.988748 20.169130 0.485820 4.985184 4.300149 0.000000 0.000000 0.000000 4.054087 -2.555937 5.256418 2.359424 8.263747 -22.667325 -3.119250 5.649011 17.893491 7.197413 5.650443 1.906582 0.000000 0.000000 0.000000 1.413601 0.030109 -3.538520 -0.056504 -2.678214 -11.939079 -1.411917 -1.612511 10.067091 0.020158 0.097482 -0.037880 -1.852869 0.662785 11.727582 0.591675 -0.131239 17.781868 0.000000 0.000000 0.000000 -0.229534 1.320633 8.976727 -17.925437 -11.283666 2.536505 -50.167586 20.618077 9.708535 -2.588869 -31.522894 5.349052 0.000000 0.000000 0.000000 -4.195588 2.385815 8.372707 24.382858 5.759309 5.132966 45.503676 -18.009778 19.248868 -7.868126 32.709906 -4.489958 0.000000 0.000000 0.000000 
3.008686 34.758930 34.825356 179.864521 1.185065 179.929804 -0.880737 -3.766414 8.243945 -7.164985 -1.802465 -25.523669 12.100577 8.962629 20.222585 0.571794 4.996653 4.367054 0.000000 0.000000 0.000000 4.049238 -2.644322 5.299424 2.354957 8.255660 -22.676662 -3.043668 5.663785 17.930800 7.231768 5.639499 1.844420 0.000000 0.000000 0.000000 1.420769 -0.073501 -3.539889 -0.039212 -2.670864 -11.916391 -1.416845 -1.623401 10.057397 0.010686 0.064026 -0.002878 -1.863176 0.728156 11.674549 0.605321 -0.141737 17.742296 0.000000 0.000000 0.000000 -0.301900 1.370526 8.890863 -17.856519 -11.292782 2.544182 -50.073917 20.576286 9.749544 -2.502693 -31.637641 5.254358 0.000000 0.000000 0.000000 -4.211373 2.448627 8.371018 24.333264 5.877864 5.084923 45.637186 -17.967197 19.254315 -7.802608 32.604031 -4.468428 0.000000 0.000000 0.000000 
3.012013 34.757629 34.799118 179.846899 1.262577 179.995128 -0.909288 -3.828510 8.251280 -7.166170 -1.766971 -25.599617 12.084545 8.900281 20.334344 0.654256 4.981469 4.267600 0.000000 0.000000 0.000000 4.029848 -2.593641 5.282360 2.332458 8.212791 -22.735113 -2.968648 5.658892 18.037018 7.261334 5.634576 1.701752 0.000000 0.000000 0.000000 1.376230 -0.256761 -3.592211 0.027192 -2.447483 -11.917211 -1.394798 -1.617643 10.041943 0.017886 0.060777 -0.033040 -1.851360 0.864500 11.681712 0.623482 -0.133611 17.728810 0.000000 0.000000 0.000000 -0.307071 1.373718 8.937592 -17.768542 -11.406227 2.546002 -49.993600 20.529266 9.853358 -2.470026 -31.754793 5.282990 0.000000 0.000000 0.000000 -4.246619 2.454970 8.380415 24.205958 5.931128 5.031145 45.786924 -18.067621 19.098942 -7.780902 32.557770 -4.491620 0.000000 0.000000 0.000000 
3.013274 34.759453 34.788799 179.875586 1.310943 -179.930460 -0.900139 -3.856559 8.245841 -7.177816 -1.737211 -25.696987 12.080925 8.743140 20.431427 0.769008 4.966333 4.154084 0.000000 0.000000 0.000000 4.049034 -2.534193 5.281892 2.322588 8.162574 -22.784640 -2.904205 5.659058 18.064980 7.294906 5.615535 1.629928 0.000000 0.000000 0.000000 1.434583 -0.105214 -3.632122 0.010300 -2.570040 -11.887465 -1.402430 -1.584227 10.067067 -0.008655 0.093163 -0.051879 -1.821782 0.687704 11.704700 0.601669 -0.168238 17.738590 0.000000 0.000000 0.000000 -0.241611 1.386368 8.936818 -17.663755 -11.559395 2.566207 -49.854104 20.482416 9.966810 -2.400988 -31.938374 5.228999 0.000000 0.000000 0.000000 -4.151543 2.473338 8.414989 24.030146 6.022746 5.018028 45.996143 -18.265437 18.916752 -7.740731 32.637922 -4.574410 0.000000 0.000000 0.000000 
3.018830 34.763088 34.791260 179.853743 1.344233 -179.974733 -0.967272 -3.836432 8.302670 -7.144907 -1.595381 -25.717085 11.996983 8.626693 20.398012 0.838531 4.937501 4.282686 0.000000 0.000000 0.000000 4.014197 -2.549986 5.333109 2.301409 8.105234 -22.785026 -2.851187 5.634254 18.000701 7.376169 5.585853 1.731971 0.000000 0.000000 0.000000 1.397708 -0.243563 -3.573860 0.045595 -2.495507 -11.799030 -1.324664 -1.552891 10.069702 0.009516 0.113989 0.036786 -1.754635 0.699793 11.587000 0.595196 -0.194281 17.718475 0.000000 0.000000 0.000000 -0.212890 1.326454 8.858534 -17.567685 -11.702470 2.665088 -49.644441 20.622609 10.128680 -2.387439 -32.175870 5.294528 0.000000 0.000000 0.000000 -4.136406 2.453025 8.279733 23.839047 6.096669 4.978171 46.243044 -18.608579 18.576269 -7.786942 32.858596 -4.709273 0.000000 0.000000 0.000000 
3.020448 34.772499 34.794830 179.863292 1.402164 -179.973217 -0.995674 -3.832048 8.308893 -7.159538 -1.480278 -25.738663 11.980087 8.447193 20.372176 0.937307 4.931059 4.342023 0.000000 0.000000 0.000000 4.006989 -2.504163 5.351165 2.294347 8.051476 -22.815694 -2.818865 5.623176 17.969328 7.454845 5.545206 1.830097 0.000000 0.000000 0.000000 1.377267 -0.094001 -3.587748 0.081130 -2.451676 -11.717953 -1.281252 -1.602393 10.083454 -0.007996 0.075355 0.036633 -1.657352 0.647627 11.572650 0.598820 -0.209795 17.759086 0.000000 0.000000 0.000000 -0.140894 1.341958 8.883645 -17.576949 -11.726444 2.641269 -49.445625 20.884350 10.383185 -2.250651 -32.531918 5.242374 0.000000 0.000000 0.000000 -4.060195 2.323302 8.396278 23.669449 6.336285 4.927170 46.484164 -18.977284 18.391975 -7.835656 33.115011 -4.799294 0.000000 0.000000 0.000000 
3.025603 34.783413 34.796883 179.835288 1.443517 -179.909696 -1.049070 -3.870388 8.257089 -7.188273 -1.351513 -25.746016 11.989276 8.262029 20.337107 1.003491 4.925950 4.349728 0.000000 0.000000 0.000000 3.985326 -2.441138 5.330045 2.290282 7.994225 -22.896380 -2.810072 5.612528 18.002985 7.538595 5.508007 1.898912 0.000000 0.000000 0.000000 1.347367 -0.064208 -3.684368 0.122938 -2.326847 -11.650828 -1.262224 -1.618063 10.112526 0.102298 0.072073 0.022917 -1.685438 0.705474 11.595836 0.562905 -0.185298 17.838673 0.000000 0.000000 0.000000 -0.203595 1.341664 8.919440 -17.656369 -11.776897 2.708188 -49.239394 21.234848 10.480395 -2.170925 -32.981621 5.236077 0.000000 0.000000 0.000000 -4.089598 2.409509 8.389879 23.571516 6.377373 4.962381 46.725666 -19.396947 18.196481 -7.961888 33.539118 -4.847385 0.000000 0.000000 0.000000 
